<svg width="48" height="48" viewBox="0 0 48 48" fill="none" xmlns="http://www.w3.org/2000/svg">
  <path d="M24 5C13.5066 5 5 13.5066 5 24C5 34.4934 13.5066 43 24 43C34.4934 43 43 34.4934 43 24C43 13.5066 34.4934 5 24 5Z" stroke="#FFD700" stroke-width="2"/>
  <path d="M24 5V43" stroke="#FFD700" stroke-width="2" stroke-linecap="round"/>
  <path d="M5 24H43" stroke="#FFD700" stroke-width="2" stroke-linecap="round"/>
  <circle cx="24" cy="24" r="3" fill="#FFD700"/>
  <circle cx="24" cy="5" r="2" fill="#FFD700"/>
  <circle cx="24" cy="43" r="2" fill="#FFD700"/>
  <circle cx="5" cy="24" r="2" fill="#FFD700"/>
  <circle cx="43" cy="24" r="2" fill="#FFD700"/>
  <circle cx="12" cy="12" r="2" fill="#FFD700"/>
  <circle cx="36" cy="36" r="2" fill="#FFD700"/>
  <circle cx="12" cy="36" r="2" fill="#FFD700"/>
  <circle cx="36" cy="12" r="2" fill="#FFD700"/>
  <path d="M12 12L24 24M36 12L24 24M12 36L24 24M36 36L24 24" stroke="#FFD700" stroke-width="1.5" stroke-dasharray="2 2"/>
</svg>